<?xml version="1.0" encoding="UTF-8"?>
<svg version="1.1" xmlns="http://www.w3.org/2000/svg" width="1926" height="616">
<path d="M0 0 C0.97263794 -0.0065712 1.94527588 -0.0131424 2.9473877 -0.01991272 C6.1897794 -0.03973032 9.4321242 -0.05133788 12.67456055 -0.0612793 C14.34027131 -0.06739259 14.34027131 -0.06739259 16.0396328 -0.07362938 C21.93706452 -0.09454344 27.83447274 -0.10881206 33.73193359 -0.11816406 C39.77791454 -0.12913406 45.82351773 -0.16340778 51.86936665 -0.20333576 C56.55139257 -0.22973002 61.23333251 -0.23787678 65.91542625 -0.24144554 C68.14016406 -0.24626677 70.36489921 -0.25775023 72.58956337 -0.27648354 C97.82262119 -0.47545122 122.89198205 2.57474801 142.4362793 20.11450195 C153.53276432 31.88833077 157.43610283 47.44939239 158.1237793 63.23950195 C157.54551214 78.61615147 153.10017621 92.00370773 143.7487793 104.17700195 C143.05655273 105.11866211 143.05655273 105.11866211 142.3503418 106.0793457 C134.75615914 115.75863631 123.62197342 121.05205695 112.7487793 126.17700195 C111.4132885 126.83933612 110.07882868 127.50380743 108.7487793 128.17700195 C109.38944336 128.61270508 110.03010742 129.0484082 110.69018555 129.49731445 C128.92630555 142.0533315 140.09889709 159.15427331 151.67578125 177.72973633 C152.16135498 178.50768555 152.64692871 179.28563477 153.1472168 180.0871582 C153.57695801 180.77946533 154.00669922 181.47177246 154.44946289 182.18505859 C155.79882141 184.25372002 157.24637725 186.21740673 158.7487793 188.17700195 C158.48323242 187.29141602 158.21768555 186.40583008 157.9440918 185.4934082 C150.05621394 157.82825996 150.7827232 128.63681471 164.6159668 102.90356445 C175.65350553 83.2201205 192.15407031 70.44578466 213.6237793 63.86450195 C234.81988319 58.41664552 259.16341893 60.8072177 278.42456055 71.0637207 C295.91280243 82.18139269 306.21568048 99.19213841 310.7487793 119.17700195 C313.21600817 130.7982107 317.10894953 153.45666148 311.7487793 164.17700195 C276.7687793 164.17700195 241.7887793 164.17700195 205.7487793 164.17700195 C208.25141312 176.69017106 211.05775514 184.78736606 221.7487793 192.17700195 C237.67152056 201.07890056 257.62539066 198.88458875 274.58081055 194.42700195 C280.11380683 192.8480009 285.38822176 190.70394274 290.67456055 188.4465332 C293.7487793 187.17700195 293.7487793 187.17700195 297.7487793 186.17700195 C297.7487793 198.71700195 297.7487793 211.25700195 297.7487793 224.17700195 C280.46733416 231.08958001 280.46733416 231.08958001 273.2487793 232.48950195 C272.15049805 232.7225 272.15049805 232.7225 271.0300293 232.96020508 C250.32808426 237.266949 225.01667158 237.89624885 204.7487793 231.17700195 C203.5834668 230.81477539 202.4181543 230.45254883 201.2175293 230.0793457 C190.62676223 226.42949023 181.25485809 220.5170895 173.7487793 212.17700195 C174.8497934 214.09548132 175.95472025 216.01171549 177.0612793 217.92700195 C177.67616211 218.9943457 178.29104492 220.06168945 178.92456055 221.16137695 C180.62760699 224.11455929 180.62760699 224.11455929 182.47924805 226.38012695 C183.7487793 228.17700195 183.7487793 228.17700195 183.7487793 231.17700195 C176.03000594 231.38592902 168.31152696 231.54564223 160.59056664 231.6433115 C157.00475285 231.69020215 153.42087879 231.75373883 149.83618164 231.85595703 C146.3735834 231.95407065 142.91284447 232.00762072 139.44896317 232.03089714 C137.49085295 232.05551672 135.53348725 232.12573204 133.57650757 232.19667053 C124.86765318 232.20160069 124.86765318 232.20160069 121.65931702 229.26359558 C120.10273776 226.95932406 118.911545 224.69899959 117.7487793 222.17700195 C116.89313978 220.74448028 116.02411118 219.31977521 115.13549805 217.9074707 C114.23383986 216.39428938 113.33419667 214.87990606 112.4362793 213.36450195 C111.39265566 211.61541771 110.3483427 209.86674465 109.3034668 208.1184082 C108.73982422 207.17497559 108.17618164 206.23154297 107.59545898 205.25952148 C92.21546112 178.11029299 92.21546112 178.11029299 73.7487793 153.17700195 C73.7487793 152.51700195 73.7487793 151.85700195 73.7487793 151.17700195 C72.9753418 150.80575195 72.9753418 150.80575195 72.1862793 150.42700195 C69.56471453 149.08260976 67.05310725 147.59892675 64.5300293 146.0793457 C57.8859081 142.71357378 51.4025047 144.17700195 43.7487793 144.17700195 C43.4187793 172.88700195 43.0887793 201.59700195 42.7487793 231.17700195 C34.1894043 231.19762695 25.6300293 231.21825195 16.8112793 231.23950195 C12.75278687 231.25315796 12.75278687 231.25315796 8.61230469 231.26708984 C6.48201548 231.2700088 4.35172572 231.27255741 2.22143555 231.2746582 C1.10377808 231.27977417 -0.01387939 231.28489014 -1.16540527 231.29016113 C-2.22102661 231.29028198 -3.27664795 231.29040283 -4.36425781 231.29052734 C-5.74658852 231.29385826 -5.74658852 231.29385826 -7.15684509 231.29725647 C-9.2512207 231.17700195 -9.2512207 231.17700195 -10.2512207 230.17700195 C-10.35141957 227.23362136 -10.38560431 224.31362825 -10.37820435 221.36975098 C-10.37976434 220.43446863 -10.38132433 219.49918628 -10.38293159 218.53556204 C-10.38694589 215.37631282 -10.38375029 212.21711097 -10.38061523 209.05786133 C-10.38196909 206.80320711 -10.38374892 204.54855311 -10.38592529 202.29389954 C-10.39050156 196.15152003 -10.38870928 190.00915724 -10.38554621 183.86677742 C-10.3830236 177.45435667 -10.38535987 171.0419374 -10.38693237 164.6295166 C-10.38887124 153.16778804 -10.38575341 141.70606878 -10.38067304 130.24434179 C-10.37620499 119.84184582 -10.37698092 109.439361 -10.3815918 99.03686523 C-10.38693746 86.97089683 -10.38893845 74.90493686 -10.38597953 62.83896685 C-10.3844163 56.44665286 -10.38422425 50.05434658 -10.38751602 43.66203308 C-10.39039354 37.65392983 -10.38842126 31.64584776 -10.38262177 25.63774681 C-10.38129352 23.42573774 -10.38168936 21.2137269 -10.38388443 19.00171852 C-10.38659342 15.99587216 -10.3832179 12.99009483 -10.37820435 9.98425293 C-10.38155043 8.65310463 -10.38155043 8.65310463 -10.38496411 7.29506445 C-10.35674881 -1.35073315 -7.79154031 0.02257351 0 0 Z M42.7487793 41.17700195 C42.64962135 43.07399044 42.62078616 44.97468982 42.61938477 46.87426758 C42.6162326 48.09223022 42.61308044 49.31019287 42.60983276 50.56506348 C42.61162255 51.90446 42.6136735 53.2438562 42.6159668 54.58325195 C42.6152937 55.94706235 42.61432363 57.31087263 42.61306763 58.67468262 C42.61159092 61.53630716 42.61374433 64.39790055 42.6184082 67.25952148 C42.62410549 70.93518809 42.62082634 74.61078169 42.61483574 78.28644562 C42.61122939 81.10362299 42.61236905 83.92078293 42.61496353 86.73796082 C42.6156326 88.09360259 42.61480509 89.44924592 42.61248398 90.80488586 C42.60995629 92.6965024 42.61448916 94.58812444 42.61938477 96.47973633 C42.62018036 97.55815796 42.62097595 98.63657959 42.62179565 99.74768066 C42.47439383 102.12569375 42.47439383 102.12569375 43.7487793 103.17700195 C47.72104438 103.4334857 51.7067388 103.36224981 55.6862793 103.36450195 C56.79036133 103.37674805 57.89444336 103.38899414 59.03198242 103.40161133 C70.66739991 103.42222932 81.98149082 102.18588741 91.0144043 94.1652832 C98.75258701 85.95421154 102.11942488 77.23727239 101.95581055 66.05200195 C101.35502622 57.7090347 97.99261984 51.70618604 91.7487793 46.17700195 C82.50255999 39.71232165 71.07302504 39.87043534 60.23193359 39.97119141 C58.15865094 39.98974925 56.08580922 39.99169846 54.01245117 39.99145508 C47.99709119 39.42501738 47.99709119 39.42501738 42.7487793 41.17700195 Z M213.12768555 109.1418457 C208.97140551 114.87357353 206.2048045 121.23828875 204.7487793 128.17700195 C205.17626159 130.30184221 205.17626159 130.30184221 205.7487793 132.17700195 C213.16337871 132.20013078 220.5779704 132.2179198 227.99259853 132.22881413 C231.43518278 132.23404177 234.87774242 132.24113726 238.3203125 132.25244141 C242.27432973 132.2653443 246.22833685 132.27023113 250.18237305 132.2746582 C251.42401718 132.27981949 252.66566132 132.28498077 253.94493103 132.29029846 C255.65659203 132.29041176 255.65659203 132.29041176 257.40283203 132.29052734 C258.4132103 132.29274796 259.42358856 132.29496857 260.46458435 132.29725647 C262.71458784 132.434178 262.71458784 132.434178 263.7487793 131.17700195 C264.8609103 122.48050217 262.83225598 112.85898088 257.5612793 105.73950195 C250.70388393 99.49165284 243.66546929 96.77779325 234.47143555 96.8996582 C225.60062775 97.80328425 218.6880001 102.4024765 213.12768555 109.1418457 Z M159.7487793 190.17700195 C160.7487793 192.17700195 160.7487793 192.17700195 160.7487793 192.17700195 Z " fill="#000000" transform="translate(103.251220703125,169.822998046875)"/>
<path d="M0 0 C0.33 16.17 0.66 32.34 1 49 C12.88 49.33 24.76 49.66 37 50 C37 62.54 37 75.08 37 88 C24.79 88 12.58 88 0 88 C0.06187156 100.90841683 0.06187156 100.90841683 0.16015625 113.81640625 C0.20835588 119.0874048 0.25245111 124.35819734 0.27099609 129.62939453 C0.28623143 133.88311083 0.32079729 138.13628519 0.36830902 142.38975906 C0.38305236 144.00585828 0.39103694 145.6220349 0.39188385 147.23820114 C0.24561295 161.3140602 0.24561295 161.3140602 6.3760376 173.63217163 C10.47283245 177.37056575 14.7308047 178.72769656 20.125 179.375 C25.72335726 178.83322349 30.74247712 176.93380152 36 175 C37 176 37 176 37.11352539 179.60180664 C37.11336625 181.20459856 37.10767063 182.8073956 37.09765625 184.41015625 C37.09553383 185.67320839 37.09553383 185.67320839 37.09336853 186.96177673 C37.08775263 189.66205335 37.07519748 192.36224828 37.0625 195.0625 C37.05748705 196.88867068 37.05292379 198.71484266 37.04882812 200.54101562 C37.03777804 205.02737542 37.02050279 209.51367384 37 214 C17.38634638 221.49998618 -5.9004237 223.46307351 -25.56982422 214.74316406 C-36.36407078 209.55188184 -43.74100173 202.21759781 -48 191 C-50.89220099 182.18972386 -52.15672664 173.65074168 -52.11352539 164.40258789 C-52.11367142 163.57251221 -52.11381744 162.74243652 -52.1139679 161.88720703 C-52.11327574 159.16566277 -52.1055162 156.44418844 -52.09765625 153.72265625 C-52.09578959 151.82694028 -52.09436686 149.93122383 -52.09336853 148.0355072 C-52.08956287 143.06251681 -52.07974935 138.08955593 -52.06866455 133.11657715 C-52.05840838 128.03540445 -52.05386192 122.95422695 -52.04882812 117.87304688 C-52.03812523 107.91534957 -52.02054434 97.95768187 -52 88 C-60.58 88 -69.16 88 -78 88 C-76.6078125 91.465 -76.6078125 91.465 -75.1875 95 C-65.59799686 120.23607859 -66.40248908 148.44955237 -77.18066406 173.19238281 C-85.71753346 192.02640576 -100.27261225 204.93246718 -119.171875 212.9453125 C-146.78755486 223.24397764 -177.84572355 222.50697422 -205 211 C-223.07954028 202.62167645 -235.65920401 187.34018805 -243 169 C-251.29459203 144.57072209 -251.16659341 115.45028097 -240.3984375 91.79296875 C-229.60737792 70.24099221 -213.61122929 56.88350249 -190.95019531 49.31542969 C-170.47602435 43.01940451 -144.28305095 43.47508202 -124 50 C-122.85402344 50.350625 -121.70804688 50.70125 -120.52734375 51.0625 C-102.74535108 57.16644981 -90.30904335 68.53643498 -80 84 C-79.67 72.78 -79.34 61.56 -79 50 C-70.42 49.67 -61.84 49.34 -53 49 C-52.67 37.45 -52.34 25.9 -52 14 C-40.75458838 10.37244787 -29.47456055 6.91310798 -18.125 3.625 C-16.2982373 3.08842773 -16.2982373 3.08842773 -14.43457031 2.54101562 C-13.28311523 2.21037109 -12.13166016 1.87972656 -10.9453125 1.5390625 C-9.91937988 1.24209473 -8.89344727 0.94512695 -7.83642578 0.63916016 C-5 0 -5 0 0 0 Z M-185.25390625 96.65625 C-195.64561348 110.60485031 -197.66380735 128.03777994 -195.49609375 144.92578125 C-194.13805245 152.64721608 -192.11387838 159.30843833 -188 166 C-187.443125 166.9075 -186.88625 167.815 -186.3125 168.75 C-178.80644583 176.05318784 -168.80821786 180.00403965 -158.375 180.3125 C-147.9785133 179.85084428 -138.8314254 176.49294816 -131.625 168.6875 C-120.95656132 154.86360763 -120.64602821 135.67292749 -122 119 C-123.40749711 109.24313218 -127.96339828 98.95907932 -135.6875 92.625 C-151.0109548 82.46707892 -172.40163675 82.33438627 -185.25390625 96.65625 Z " fill="#000000" transform="translate(931,186)"/>
<path d="M0 0 C17.49 0 34.98 0 53 0 C62.08166496 19.67694074 71.10919682 39.36527802 79.87109375 59.18603516 C83.54801928 67.50032937 87.25552241 75.79966986 91.00390625 84.08203125 C91.42163803 85.00593155 91.83936981 85.92983185 92.26976013 86.88172913 C93.91835018 90.52737554 95.56704182 94.17294995 97.22335815 97.81509399 C98.36040671 100.31541156 99.49307231 102.81767349 100.625 105.3203125 C101.13934349 106.44570183 101.13934349 106.44570183 101.66407776 107.59382629 C104 112.77289809 104 112.77289809 104 115 C104.66 115 105.32 115 106 115 C106.34289063 113.85015625 106.68578125 112.7003125 107.0390625 111.515625 C109.2819709 104.79998561 112.34251727 98.43844516 115.31903076 92.02554321 C117.13904747 88.10352871 118.94308626 84.17415731 120.75 80.24609375 C121.11451263 79.45486618 121.47902527 78.66363861 121.85458374 77.84843445 C125.07358313 70.85658121 128.23580974 63.84059064 131.375 56.8125 C132.40879611 54.49997405 133.44265239 52.18747499 134.4765625 49.875 C134.87785873 48.97715538 134.87785873 48.97715538 135.28726196 48.06117249 C139.01612349 39.72181208 142.76520048 31.39152448 146.51348877 23.06088257 C147.73382189 20.34845893 148.95358521 17.63577952 150.17333984 14.9230957 C150.92281011 13.25730557 151.67231992 11.59153322 152.421875 9.92578125 C152.76914642 9.15327026 153.11641785 8.38075928 153.47421265 7.58483887 C155.88547751 2.22904498 155.88547751 2.22904498 157 0 C161.29 0 165.58 0 170 0 C174.50556767 8.86191691 178.78794798 17.78168787 182.8125 26.875 C183.64824771 28.75257627 184.48523515 30.62959719 185.32221985 32.50662231 C185.92046849 33.84848324 186.5183519 35.19050706 187.1158905 36.53268433 C191.0311808 45.32479119 194.98602311 54.09911471 198.9375 62.875 C199.7033876 64.57665185 200.46925679 66.27831198 201.23510742 67.97998047 C208.14279536 83.3262847 215.06738813 98.66494062 222 114 C224.52776071 111.47223929 225.62666409 108.63443455 227.02734375 105.40625 C227.32774567 104.72476898 227.62814758 104.04328796 227.93765259 103.34115601 C228.59426814 101.85067144 229.24883978 100.3592852 229.90164185 98.86712646 C231.69270508 94.77421745 233.49935502 90.68819274 235.3046875 86.6015625 C235.68514725 85.73943146 236.06560699 84.87730042 236.45759583 83.98904419 C240.36819755 75.14015997 244.36114037 66.32916255 248.36120605 57.52044678 C257.04180623 38.40433797 265.55851664 19.22317993 274 0 C291.49 0 308.98 0 327 0 C326.21232743 4.72603543 325.59512374 7.32860036 323.62109375 11.4453125 C322.87061768 13.03110107 322.87061768 13.03110107 322.10498047 14.64892578 C321.55471191 15.79603027 321.00444336 16.94313477 320.4375 18.125 C319.23567988 20.66422715 318.04107109 23.20681321 316.84765625 25.75 C316.37706787 26.75125412 316.37706787 26.75125412 315.89697266 27.7727356 C312.27436014 35.50557584 308.82487853 43.31398255 305.375 51.125 C299.48381537 64.44753883 293.51747872 77.73403626 287.5 91 C281.61468562 103.97733522 275.77072281 116.97129965 270 130 C256.22194058 161.09932137 242.09094307 192.04151032 228 223 C224.04 223 220.08 223 216 223 C215.55422607 221.97793457 215.10845215 220.95586914 214.64916992 219.90283203 C205.60913285 199.18885143 196.47112311 178.52446429 187.12445068 157.94689941 C179.28641368 140.68793887 171.60686601 123.36195932 164 106 C159.14474498 115.57227122 154.46283003 125.17934364 150.125 135 C149.29608023 136.86417436 148.46575253 138.72771822 147.63545227 140.59127808 C147.04265463 141.92208431 146.45028504 143.25308129 145.85832214 144.58425903 C141.95458691 153.3604953 138.00680598 162.11694369 134.0625 170.875 C133.68249847 171.71886261 133.30249695 172.56272522 132.91098022 173.43215942 C131.38805786 176.81407084 129.86513123 180.19598027 128.34181213 183.57771301 C126.15788023 188.42647216 123.97681121 193.2765037 121.79853821 198.12780762 C120.48688853 201.04814688 119.17345066 203.96767944 117.85958862 206.88702393 C117.24853794 208.24583562 116.6382782 209.6050033 116.02883911 210.96453857 C115.19708295 212.81973894 114.36230234 214.67358247 113.52734375 216.52734375 C112.82726196 218.08569946 112.82726196 218.08569946 112.11303711 219.67553711 C111 222 111 222 110 223 C107.98035801 223.07244053 105.95832876 223.08377188 103.9375 223.0625 C102.83277344 223.05347656 101.72804688 223.04445313 100.58984375 223.03515625 C99.30787109 223.01775391 99.30787109 223.01775391 98 223 C97.54898926 221.96746094 97.09797852 220.93492187 96.63330078 219.87109375 C88.13950635 200.43482689 79.60014661 181.02117707 70.875 161.6875 C65.25950686 149.24326559 59.66375489 136.79110466 54.125 124.3125 C53.80447662 123.59047394 53.48395325 122.86844788 53.15371704 122.12454224 C51.48615271 118.36763782 49.81931513 114.61041148 48.15283203 110.85302734 C44.12641588 101.77537799 40.09477612 92.70004757 36.0625 83.625 C35.64191315 82.67840515 35.22132629 81.7318103 34.78799438 80.75653076 C29.17222277 68.119056 23.54481961 55.48684767 17.89764404 42.8633728 C16.83056392 40.47788245 15.76415289 38.09209373 14.69775391 35.70629883 C11.80105625 29.22944757 8.89683355 22.7568037 5.9453125 16.3046875 C5.51114014 15.35279541 5.07696777 14.40090332 4.62963867 13.42016602 C3.86923631 11.75687344 3.10424475 10.09566596 2.33325195 8.43725586 C0.96620528 5.44612582 0 3.33006185 0 0 Z " fill="#1ACC6C" transform="translate(1150,195)"/>
<path d="M0 0 C12.04980721 10.92575803 17.68275442 25.85356732 19.09375 41.8984375 C19.22853864 45.78182469 19.22038849 49.66148535 19.20727539 53.546875 C19.20742142 54.68921097 19.20756744 55.83154694 19.2077179 57.00849915 C19.20702431 60.76349829 19.1992579 64.51844708 19.19140625 68.2734375 C19.1895401 70.88517225 19.18811713 73.49690735 19.18711853 76.10864258 C19.18401961 82.26722146 19.17582575 88.42578243 19.16576904 94.58435345 C19.15346225 102.2893051 19.14801394 109.99425971 19.14257812 117.69921875 C19.13285941 131.43230559 19.11282373 145.1653534 19.09375 158.8984375 C2.26375 158.8984375 -14.56625 158.8984375 -31.90625 158.8984375 C-33.0310774 148.7749909 -33.0310774 148.7749909 -33.03755188 145.21440125 C-33.04356415 143.99759674 -33.04356415 143.99759674 -33.04969788 142.75621033 C-33.0489048 141.4724929 -33.0489048 141.4724929 -33.0480957 140.1628418 C-33.05157013 139.23470673 -33.05504456 138.30657166 -33.05862427 137.35031128 C-33.06593168 135.35009537 -33.07130352 133.34987161 -33.07491493 131.34964561 C-33.08214176 128.17409748 -33.09785334 124.99869846 -33.11625671 121.82319641 C-33.16844035 112.79955057 -33.21667737 103.77599085 -33.23217773 94.75219727 C-33.24230429 89.2173438 -33.27173995 83.68287378 -33.31349754 78.14817238 C-33.32573844 76.05084963 -33.33094156 73.95347261 -33.32869911 71.85611534 C-33.31876519 59.53556093 -33.42653445 48.99638485 -39.53125 37.9609375 C-46.29861855 32.08401218 -52.92850015 30.0728976 -61.859375 30.4921875 C-68.53367657 31.38209438 -72.32108981 33.85752107 -76.65625 38.9609375 C-83.37749913 48.24485467 -85.0408177 58.39460435 -85.11157227 69.55395508 C-85.12147186 70.5202887 -85.13137146 71.48662231 -85.14157104 72.48223877 C-85.17310152 75.66912403 -85.19791007 78.85602419 -85.22265625 82.04296875 C-85.24323307 84.25543093 -85.26422974 86.46788925 -85.28562927 88.68034363 C-85.3407747 94.49833033 -85.39021718 100.31635206 -85.43847656 106.13439941 C-85.49758786 113.11787491 -85.56377438 120.1012865 -85.62877655 127.08470917 C-85.72669132 137.68924618 -85.81561228 148.29382454 -85.90625 158.8984375 C-103.06625 158.8984375 -120.22625 158.8984375 -137.90625 158.8984375 C-137.94363281 151.59074219 -137.98101563 144.28304687 -138.01953125 136.75390625 C-138.0498257 132.11000296 -138.08098333 127.46613731 -138.11523438 122.82226562 C-138.16945526 115.45973662 -138.22056951 108.09728208 -138.25268555 100.73461914 C-138.27879389 94.7952214 -138.31924969 88.85607524 -138.36943626 82.91683388 C-138.38605408 80.65680394 -138.39759989 78.39673053 -138.40386391 76.13664818 C-138.41356033 72.95826542 -138.44168596 69.78051897 -138.47387695 66.60229492 C-138.47244186 65.67871689 -138.47100677 64.75513885 -138.4695282 63.80357361 C-138.61756452 53.3925177 -141.00682369 43.91443763 -147.90625 35.8984375 C-153.33125607 31.16793703 -158.71725271 30.48261105 -165.69921875 30.55859375 C-172.34136386 31.26245078 -177.74708243 34.28554278 -182.28125 39.1484375 C-187.02931549 45.29536648 -189.86927952 52.58369411 -190.20288086 60.33178711 C-190.24192032 61.23667374 -190.28095978 62.14156036 -190.32118225 63.0738678 C-190.35827805 64.07687424 -190.39537384 65.07988068 -190.43359375 66.11328125 C-190.49558205 67.73144997 -190.49558205 67.73144997 -190.55882263 69.38230896 C-191.13610039 85.83901312 -191.25584937 102.30814159 -191.43847656 118.77288818 C-191.49866771 124.11740111 -191.56419495 129.46185123 -191.62877655 134.80631256 C-191.72524598 142.83698106 -191.81514579 150.86769831 -191.90625 158.8984375 C-209.06625 158.8984375 -226.22625 158.8984375 -243.90625 158.8984375 C-243.90625 104.4484375 -243.90625 49.9984375 -243.90625 -6.1015625 C-226.74625 -6.1015625 -209.58625 -6.1015625 -191.90625 -6.1015625 C-191.41125 5.2834375 -191.41125 5.2834375 -190.90625 16.8984375 C-189.58625 15.3928125 -188.26625 13.8871875 -186.90625 12.3359375 C-174.86335359 -0.92058413 -160.98365713 -9.50315852 -142.6875 -10.4140625 C-126.47030282 -10.9116671 -112.51232638 -8.333429 -100.21875 3.0859375 C-96.04798992 7.49502672 -92.99662834 12.70397178 -89.90625 17.8984375 C-89.349375 17.18558594 -88.7925 16.47273438 -88.21875 15.73828125 C-76.30409808 0.78458805 -62.625417 -8.2608719 -43.34375 -10.7890625 C-27.69978848 -12.12046348 -12.39701027 -10.34539237 0 0 Z " fill="#000000" transform="translate(661.90625,242.1015625)"/>
<path d="M0 0 C16.63937988 14.19450666 22.68988557 35.33048658 25.125 56.3125 C25.48302034 61.82252034 25.50840785 67.35480296 25.5625 72.875 C25.58231934 74.26307861 25.58231934 74.26307861 25.60253906 75.67919922 C25.60350586 76.55721191 25.60447266 77.43522461 25.60546875 78.33984375 C25.60957764 79.12866943 25.61368652 79.91749512 25.61791992 80.73022461 C25.375 82.9375 25.375 82.9375 23.375 86.9375 C-11.605 86.9375 -46.585 86.9375 -82.625 86.9375 C-77.52233879 105.05885939 -77.52233879 105.05885939 -64.5703125 115.4296875 C-46.64130443 124.60819826 -25.07359795 121.16740009 -6.64453125 115.3125 C-1.17597439 113.49095629 4.12392 111.31515665 9.375 108.9375 C11.39373446 110.95623446 10.58680162 115.03416343 10.61328125 117.8046875 C10.621353 118.59521515 10.62942474 119.3857428 10.63774109 120.20022583 C10.65159625 121.87646277 10.66231198 123.5527281 10.67016602 125.22900391 C10.68738352 127.79513913 10.73125483 130.35998767 10.77539062 132.92578125 C10.78551677 134.55207383 10.79403312 136.17837739 10.80078125 137.8046875 C10.82704338 138.95794022 10.82704338 138.95794022 10.85383606 140.13449097 C10.83215824 145.44947456 10.83215824 145.44947456 8.58154297 147.85205078 C5.18779884 149.52151154 1.77944761 150.75836766 -1.8125 151.9375 C-2.60333984 152.19877686 -3.39417969 152.46005371 -4.20898438 152.72924805 C-12.23642096 155.28364978 -20.29588272 156.77246689 -28.625 157.9375 C-29.48867187 158.06898438 -30.35234375 158.20046875 -31.2421875 158.3359375 C-56.2858485 161.54221936 -84.65232381 158.03256358 -105.34765625 142.65771484 C-121.95160288 129.25778037 -130.59041621 110.7689506 -133.625 89.9375 C-134.50221615 73.79551296 -134.87005036 57.38030401 -129.625 41.9375 C-129.26277344 40.80054688 -128.90054688 39.66359375 -128.52734375 38.4921875 C-121.68881376 18.88067438 -107.22471435 1.41231831 -88.625 -8.0625 C-60.78879503 -21.46652756 -24.6262362 -18.6489944 0 0 Z M-73.625 30.9375 C-78.033996 36.88614539 -81.47261245 43.55704039 -82.625 50.9375 C-82.32512359 52.27875427 -81.9960281 53.61416065 -81.625 54.9375 C-74.21040058 54.96062883 -66.79580889 54.97841785 -59.38118076 54.98931217 C-55.93859652 54.99453982 -52.49603688 55.00163531 -49.0534668 55.01293945 C-45.09944957 55.02584235 -41.14544244 55.03072918 -37.19140625 55.03515625 C-35.94976212 55.04031754 -34.70811798 55.04547882 -33.42884827 55.05079651 C-31.71718727 55.05090981 -31.71718727 55.05090981 -29.97094727 55.05102539 C-28.960569 55.053246 -27.95019073 55.05546661 -26.90919495 55.05775452 C-24.65919146 55.19467605 -24.65919146 55.19467605 -23.625 53.9375 C-22.82075647 44.12572888 -25.41866455 34.28552421 -31.8125 26.62890625 C-36.98825919 21.79894132 -42.58636335 19.65545982 -49.625 19.375 C-59.3846497 19.85047011 -67.13755325 23.64086635 -73.625 30.9375 Z " fill="#000000" transform="translate(1103.625,247.0625)"/>
<path d="M0 0 C7.51857492 -0.30273483 15.03651117 -0.53293801 22.55981255 -0.67355824 C26.05477636 -0.74110123 29.54554058 -0.83246336 33.03808594 -0.98071289 C57.48342879 -1.99108183 57.48342879 -1.99108183 62.89453125 2.6484375 C65.63497696 5.78014412 67.27673254 9.23254911 69 13 C70.06957635 14.54141214 71.1748066 16.05926468 72.328125 17.5390625 C73.30393418 18.89971621 74.27788729 20.2617029 75.25 21.625 C80.3584424 28.74382224 85.53218196 35.81096184 90.7421875 42.85571289 C95.5216353 49.32765852 100.23567204 55.84527121 104.9140625 62.390625 C105.42195313 63.09832031 105.92984375 63.80601562 106.453125 64.53515625 C106.89817383 65.157854 107.34322266 65.78055176 107.80175781 66.42211914 C109.05159936 68.14192627 109.05159936 68.14192627 111 70 C111.35078613 69.52393311 111.70157227 69.04786621 112.06298828 68.55737305 C113.13060135 67.10846959 114.19822985 65.6595775 115.26586914 64.21069336 C116.52297849 62.50455743 117.77997412 60.79833772 119.03686523 59.09204102 C122.2186014 54.77298324 125.40176287 50.45500212 128.58984375 46.140625 C135.33463994 37.00897602 142.03499885 27.8471454 148.671875 18.63671875 C149.4774585 17.59547852 149.4774585 17.59547852 150.29931641 16.53320312 C152.16613665 13.921202 152.16613665 13.921202 153.55615234 10.37304688 C155.6211693 5.9970557 157.74367631 2.49705197 162 0 C171.08653392 -2.24227519 180.75495314 -1.3856013 190.0368042 -0.96130371 C193.52856017 -0.81699181 197.02173465 -0.75392256 200.515625 -0.68359375 C207.34724232 -0.53430333 214.17320671 -0.29602493 221 0 C220.38297222 3.37579011 219.86197982 5.63892903 217.734375 8.35546875 C217.26338379 8.96817627 216.79239258 9.58088379 216.30712891 10.2121582 C215.79327637 10.864021 215.27942383 11.51588379 214.75 12.1875 C213.64689229 13.62120826 212.54538565 15.05614952 211.4453125 16.4921875 C210.87458008 17.23436523 210.30384766 17.97654297 209.71582031 18.74121094 C206.95003399 22.38222618 204.28829078 26.09620447 201.625 29.8125 C194.24853331 40.07252475 186.74015288 50.23353833 179.22949219 60.39550781 C172.40688736 69.62919331 165.61906883 78.88484106 158.9140625 88.2043457 C154.21937299 94.72052309 149.45618898 101.18509873 144.66796875 107.6328125 C144.11625 108.37789063 143.56453125 109.12296875 142.99609375 109.890625 C142.51325928 110.54063477 142.0304248 111.19064453 141.53295898 111.86035156 C141.02708252 112.56643555 140.52120605 113.27251953 140 114 C139.31964188 114.82317719 138.63928375 115.64635437 137.93830872 116.49447632 C135.10626198 120.79157024 135.42765951 125.22960588 135.45410156 130.22802734 C135.43859505 131.75089859 135.43859505 131.75089859 135.42277527 133.30453491 C135.39336055 136.64849793 135.39184833 139.99185531 135.390625 143.3359375 C135.37564252 145.65907952 135.35891524 147.9822109 135.34051514 150.30532837 C135.29683742 156.41103608 135.27684139 162.5166001 135.26177979 168.62243652 C135.23876797 175.9530722 135.18633777 183.28354939 135.13883972 190.61405945 C135.07002452 201.74274769 135.03857546 212.87098077 135 224 C119.16 224 103.32 224 87 224 C87.06703125 216.678125 87.1340625 209.35625 87.203125 201.8125 C87.21885426 197.14564369 87.23101422 192.47931378 87.23046875 187.8125 C87.22994012 180.4211693 87.24189236 173.03147355 87.33251953 165.640625 C87.40484226 159.67470202 87.41755879 153.711236 87.39070892 147.7449646 C87.39065356 145.48056388 87.41128882 143.21605558 87.4539566 140.95205688 C87.72044746 125.88585241 85.91726243 116.61628699 75.38771534 105.49914074 C73.55590021 103.5202416 72.0115811 101.3815333 70.4765625 99.16796875 C70.000979 98.50547119 69.52539551 97.84297363 69.03540039 97.16040039 C68.56996826 96.50934326 68.10453613 95.85828613 67.625 95.1875 C60.82904018 85.73301437 53.92052024 76.36350587 47 67 C39.58471138 56.9670695 32.19951263 46.91579533 24.90966797 36.79125977 C20.82702607 31.12797929 16.70478458 25.49478737 12.5625 19.875 C11.9953125 19.10542969 11.428125 18.33585937 10.84375 17.54296875 C10.29847656 16.80433594 9.75320313 16.06570312 9.19140625 15.3046875 C8.4027417 14.23299316 8.4027417 14.23299316 7.59814453 13.13964844 C6.50165313 11.6716297 5.38696105 10.21708278 4.25732422 8.77441406 C3.70705566 8.06768555 3.15678711 7.36095703 2.58984375 6.6328125 C1.84335571 5.69139404 1.84335571 5.69139404 1.08178711 4.73095703 C0 3 0 3 0 0 Z " fill="#1ACC6C" transform="translate(1625,194)"/>
<path d="M0 0 C3.96 0 7.92 0 12 0 C22.96000088 18.9436437 33.44389871 38.16264245 44.00805664 57.32888794 C48.82174656 66.06206813 53.65284714 74.78532939 58.5 83.5 C64.02464229 93.4327253 69.52413752 103.37898127 75.01025391 113.33300781 C79.82322227 122.06480818 84.65360391 130.78668998 89.5 139.5 C94.3472524 148.21484957 99.1784407 156.9382956 103.99221802 165.67166138 C109.35262223 175.396616 114.71662468 185.11957555 120.10229492 194.83056641 C121.02415107 196.49332956 121.94472075 198.15680575 122.86523438 199.8203125 C126.36600426 206.12722374 129.96809957 212.35340012 133.71264648 218.51928711 C135 221 135 221 135 224 C115.2 224 95.4 224 75 224 C61.30305755 200.03035072 61.30305755 200.03035072 55.1875 188.875 C53.81723254 186.38235771 52.44569381 183.89041551 51.07421875 181.3984375 C50.73345306 180.77890198 50.39268738 180.15936646 50.04159546 179.52105713 C46.54691952 173.17003455 43.02465807 166.83442444 39.5 160.5 C33.97517063 150.56737928 28.47586208 140.62101801 22.98974609 130.66699219 C17.56697787 120.82887857 12.11873137 111.00518037 6.65771484 101.18823242 C3.36872537 95.27281801 0.08782275 89.35307994 -3.1796875 83.42578125 C-3.5283638 82.7934407 -3.8770401 82.16110016 -4.23628235 81.50959778 C-5.96135768 78.38023499 -7.6843747 75.24976379 -9.40405273 72.11743164 C-12.23421163 66.96808019 -15.07578419 61.82987168 -18.04296875 56.7578125 C-18.69483154 55.63669067 -18.69483154 55.63669067 -19.35986328 54.49291992 C-20.12994282 53.17678115 -20.90999801 51.86639781 -21.70263672 50.5637207 C-24.07776895 46.4978462 -24.07776895 46.4978462 -23.69604492 44.05419922 C-23.00027467 42.00081061 -22.18149224 40.17945081 -21.171875 38.26171875 C-20.79015137 37.5344458 -20.40842773 36.80717285 -20.01513672 36.05786133 C-19.38889404 34.88453247 -19.38889404 34.88453247 -18.75 33.6875 C-18.3183252 32.87240967 -17.88665039 32.05731934 -17.44189453 31.2175293 C-11.8307051 20.69926484 -5.91220356 10.35098963 0 0 Z " fill="#1ACC6C" transform="translate(1537,194)"/>
<path d="M0 0 C0.99 0 1.98 0 3 0 C3.38631592 0.69746338 3.77263184 1.39492676 4.1706543 2.11352539 C5.66967063 4.81874858 7.16945793 7.52354245 8.66986084 10.22799683 C9.34718659 11.44901532 10.02431129 12.67014536 10.70123291 13.89138794 C14.3861645 20.53793227 18.08710956 27.17368488 21.85546875 33.7734375 C22.44948486 34.81491943 23.04350098 35.85640137 23.65551758 36.92944336 C24.78272648 38.90137875 25.91393664 40.87103349 27.04956055 42.83813477 C27.55656494 43.72557373 28.06356934 44.6130127 28.5859375 45.52734375 C29.25181885 46.68351196 29.25181885 46.68351196 29.93115234 47.86303711 C31.01542058 50.03083059 31.77320415 51.58353052 32 54 C31.03466797 56.47583008 31.03466797 56.47583008 29.4921875 59.26953125 C28.9242749 60.31125488 28.3563623 61.35297852 27.77124023 62.42626953 C27.14548096 63.54372559 26.51972168 64.66118164 25.875 65.8125 C25.22960239 66.98499314 24.58516467 68.15801512 23.94165039 69.33154297 C19.3146116 77.74332241 14.5836587 86.09826226 9.83422852 94.44140625 C5.39296327 102.25425616 1.09145658 110.13782766 -3.16040039 118.05517578 C-8.01833816 127.08979926 -13.01597583 136.0287565 -18 145 C-37.8 145 -57.6 145 -78 145 C-78.33 144.34 -78.66 143.68 -79 143 C-77.89868164 140.57104492 -77.89868164 140.57104492 -76.16015625 137.48046875 C-75.19613892 135.75159424 -75.19613892 135.75159424 -74.21264648 133.98779297 C-73.49600391 132.72098739 -72.77928632 131.45422425 -72.0625 130.1875 C-71.32866683 128.87693575 -70.59568753 127.56589306 -69.86352539 126.25439453 C-68.33841207 123.5240209 -66.80960768 120.79576307 -65.27832031 118.06884766 C-62.12912027 112.45370169 -59.02813722 106.8121465 -55.92575073 101.17105103 C-49.86246177 90.15160423 -43.75781417 79.1552149 -37.64428711 68.16357422 C-32.74499002 59.35113131 -27.87123334 50.52482415 -23.00485229 41.69418335 C-17.2301443 31.21609327 -11.42730668 20.75384343 -5.60742188 10.30078125 C-4.72086914 8.7075 -4.72086914 8.7075 -3.81640625 7.08203125 C-3.29506104 6.14593018 -2.77371582 5.2098291 -2.23657227 4.24536133 C-1.46496981 2.84428971 -0.7153142 1.4306284 0 0 Z " fill="#1ACC6C" transform="translate(1493,273)"/>
</svg>
